<svg width="26" height="26" viewBox="0 0 26 26" fill="none" xmlns="http://www.w3.org/2000/svg">
<path d="M3.93266 15.1552C4.85016 10.7493 8.68565 7.61874 13.0001 7.61874C17.3131 7.61874 21.1486 10.7493 22.0675 15.1552C22.1039 15.33 22.2082 15.4832 22.3576 15.5811C22.5069 15.679 22.6891 15.7136 22.8639 15.6772C23.0387 15.6408 23.1919 15.5364 23.2898 15.3871C23.3877 15.2377 23.4223 15.0556 23.3859 14.8807C22.3406 9.86945 17.9683 6.27343 13.0001 6.27343C8.03183 6.27343 3.65956 9.86945 2.61425 14.8807C2.57786 15.0556 2.6124 15.2377 2.7103 15.3871C2.80819 15.5364 2.9614 15.6408 3.13623 15.6772C3.31106 15.7136 3.49319 15.679 3.64255 15.5811C3.79191 15.4832 3.89626 15.33 3.93266 15.1552ZM12.9866 10.3094C14.2354 10.3094 15.4331 10.8055 16.3161 11.6885C17.1991 12.5715 17.6952 13.7692 17.6952 15.018C17.6952 16.2668 17.1991 17.4644 16.3161 18.3474C15.4331 19.2305 14.2354 19.7266 12.9866 19.7266C11.7378 19.7266 10.5402 19.2305 9.65713 18.3474C8.7741 17.4644 8.27802 16.2668 8.27802 15.018C8.27802 13.7692 8.7741 12.5715 9.65713 11.6885C10.5402 10.8055 11.7378 10.3094 12.9866 10.3094Z" fill="#949BA5"/>
</svg>
